<svg width="764.775757" height="152.200684" viewBox="0 0 764.776 152.201" fill="none" xmlns="http://www.w3.org/2000/svg" xmlns:xlink="http://www.w3.org/1999/xlink">
	<desc>
			Created with Pixso.
	</desc>
	<defs>
		<linearGradient x1="363.275757" y1="14.200684" x2="363.275757" y2="91.200684" id="paint_linear_5_38_0" gradientUnits="userSpaceOnUse">
			<stop offset="0.184597" stop-color="#1B5D8B"/>
			<stop offset="0.881335" stop-color="#7CB4F0"/>
		</linearGradient>
		<linearGradient x1="383.775757" y1="106.200684" x2="383.775757" y2="152.200684" id="paint_linear_9_1_0" gradientUnits="userSpaceOnUse">
			<stop stop-color="#0A5891"/>
			<stop offset="0.854962" stop-color="#175F93" stop-opacity="0.854902"/>
		</linearGradient>
	</defs>
	<path id="Прямоугольник 5" d="M134.75 106.66L6.77 28.7L6.77 93.03L49.27 4.2L134.75 106.66Z" fill="#4BB1F9" fill-opacity="0.327586" fill-rule="evenodd"/>
	<path id="Career Tracker" d="M154.68 29.01C165.46 29.01 173.58 35.2 174.88 45.95L164.93 45.95C164.18 40.84 160.29 37.71 154.91 37.71C147.71 37.71 142.97 43.24 142.97 52.93C142.97 62.88 147.77 68.13 154.83 68.13C160.08 68.13 164.01 65.26 164.93 60.29L174.88 60.34C173.82 68.9 166.62 76.84 154.68 76.84C142.22 76.84 133 68.1 133 52.93C133 37.7 142.38 29.01 154.68 29.01ZM373.58 37.76L359.33 37.76L359.33 29.65L397.57 29.65L397.57 37.76L383.32 37.76L383.32 76.2L373.58 76.2L373.58 37.76ZM509.66 76.2L499.97 76.2L499.97 29.65L509.66 29.65L509.66 54.54L510.17 54.54L521.36 41.29L532.47 41.29L519.52 56.4L533.13 76.2L521.8 76.2L512.27 62.13L509.66 65.1L509.66 76.2ZM228.59 76.2L218.9 76.2L218.9 41.29L228.29 41.29L228.29 47.38L228.65 47.38C229.93 43.06 233.14 40.79 237.04 40.79C238.03 40.79 239.23 40.93 240.09 41.13L240.09 49.71C239.18 49.43 237.34 49.2 236 49.2C231.73 49.2 228.59 52.15 228.59 56.45L228.59 76.2ZM329.61 76.2L319.93 76.2L319.93 41.29L329.32 41.29L329.32 47.38L329.68 47.38C330.96 43.06 334.16 40.79 338.07 40.79C339.05 40.79 340.25 40.93 341.11 41.13L341.11 49.71C340.21 49.43 338.36 49.2 337.02 49.2C332.75 49.2 329.61 52.15 329.61 56.45L329.61 76.2ZM409.75 76.2L400.06 76.2L400.06 41.29L409.45 41.29L409.45 47.38L409.81 47.38C411.09 43.06 414.3 40.79 418.2 40.79C419.19 40.79 420.39 40.93 421.25 41.13L421.25 49.71C420.34 49.43 418.5 49.2 417.16 49.2C412.89 49.2 409.75 52.15 409.75 56.45L409.75 76.2ZM583.68 76.2L573.99 76.2L573.99 41.29L583.38 41.29L583.38 47.38L583.74 47.38C585.03 43.06 588.23 40.79 592.13 40.79C593.12 40.79 594.32 40.93 595.18 41.13L595.18 49.71C594.28 49.43 592.43 49.2 591.09 49.2C586.82 49.2 583.68 52.15 583.68 56.45L583.68 76.2ZM201.92 71.35C200.22 74.6 196.89 76.85 191.72 76.85C185.06 76.85 180.14 73.35 180.14 66.45C180.14 58.65 186.35 56.34 193.25 55.7C199.31 55.1 201.7 54.81 201.7 52.56L201.7 52.43C201.7 49.56 199.81 47.9 196.52 47.9C193.05 47.9 190.97 49.6 190.31 51.93L181.36 51.2C182.7 44.84 188.2 40.84 196.56 40.84C204.35 40.84 211.39 44.34 211.39 52.65L211.39 76.2L202.2 76.2L202.2 71.35L201.92 71.35ZM275.16 66.2C273.8 72.68 267.97 76.88 259.33 76.88C248.58 76.88 242.02 69.96 242.02 58.9C242.02 48.13 248.68 40.84 258.96 40.84C268.18 40.84 275.36 46.7 275.36 58.56L275.36 61.21L251.58 61.21L251.58 61.24C251.58 66.45 254.66 69.65 259.5 69.65C262.72 69.65 265.22 68.26 266.21 65.6L275.16 66.2ZM313.41 66.2C312.05 72.68 306.22 76.88 297.58 76.88C286.83 76.88 280.27 69.96 280.27 58.9C280.27 48.13 286.93 40.84 297.21 40.84C306.43 40.84 313.61 46.7 313.61 58.56L313.61 61.21L289.83 61.21L289.83 61.24C289.83 66.45 292.91 69.65 297.75 69.65C300.97 69.65 303.47 68.26 304.46 65.6L313.41 66.2ZM445.4 71.35C443.7 74.6 440.37 76.85 435.2 76.85C428.54 76.85 423.62 73.35 423.62 66.45C423.62 58.65 429.82 56.34 436.73 55.7C442.79 55.1 445.18 54.81 445.18 52.56L445.18 52.43C445.18 49.56 443.29 47.9 439.99 47.9C436.53 47.9 434.45 49.6 433.79 51.93L424.84 51.2C426.18 44.84 431.68 40.84 440.04 40.84C447.82 40.84 454.87 44.34 454.87 52.65L454.87 76.2L445.68 76.2L445.68 71.35L445.4 71.35ZM493.76 63.4C493.29 71.43 487.46 76.88 478.16 76.88C467.41 76.88 460.97 69.49 460.97 58.88C460.97 48.18 467.52 40.84 478.12 40.84C487.22 40.84 493.33 46.13 493.76 54.2L484.62 54.2C484.08 50.71 481.82 48.38 478.27 48.38C473.77 48.38 470.82 52.15 470.82 58.74C470.82 65.43 473.76 69.21 478.27 69.21C481.58 69.21 484.04 67.13 484.62 63.4L493.76 63.4ZM567.48 66.2C566.12 72.68 560.29 76.88 551.65 76.88C540.9 76.88 534.34 69.96 534.34 58.9C534.34 48.13 540.99 40.84 551.28 40.84C560.49 40.84 567.68 46.7 567.68 58.56L567.68 61.21L543.9 61.21L543.9 61.24C543.9 66.45 546.98 69.65 551.82 69.65C555.04 69.65 557.54 68.26 558.53 65.6L567.48 66.2ZM259.11 48.06C254.82 48.06 251.8 51.24 251.58 55.21L266.25 55.21C266.22 51.06 263.32 48.06 259.11 48.06ZM297.36 48.06C293.07 48.06 290.05 51.24 289.83 55.21L304.5 55.21C304.47 51.06 301.57 48.06 297.36 48.06ZM551.43 48.06C547.13 48.06 544.12 51.24 543.9 55.21L558.57 55.21C558.54 51.06 555.63 48.06 551.43 48.06ZM189.39 66.13C189.39 68.79 191.52 70.18 194.5 70.18C198.75 70.18 201.77 67.38 201.77 63.71L201.77 60.01C200.61 60.79 197.16 61.29 195.05 61.59C191.64 62.06 189.39 63.4 189.39 66.13ZM432.87 66.13C432.87 68.79 434.99 70.18 437.98 70.18C442.23 70.18 445.24 67.38 445.24 63.71L445.24 60.01C444.09 60.79 440.63 61.29 438.53 61.59C435.12 62.06 432.87 63.4 432.87 66.13Z" fill="url(#paint_linear_5_38_0)" fill-opacity="1.000000" fill-rule="evenodd"/>
	<path id="Прямоугольник 5" d="M78.77 56.2L14.77 56.2L52.77 27.7L14.77 88.2L78.77 56.2Z" fill="#0070B4" fill-opacity="1.000000" fill-rule="evenodd"/>
	<path id="Ваш персональный трекер вакансий" d="M349.27 116.65C351.1 116.65 351.82 115.63 351.83 114.5L356.27 114.5C356.26 117.83 353.56 119.97 349.27 119.97C344.96 119.97 342.25 117.83 342.26 114.5L346.67 114.5C346.65 115.58 347.37 116.65 349.27 116.65ZM670.05 116.65C671.87 116.65 672.6 115.63 672.6 114.5L677.05 114.5C677.04 117.83 674.34 119.97 670.05 119.97C665.74 119.97 663.03 117.83 663.04 114.5L667.44 114.5C667.43 115.58 668.15 116.65 670.05 116.65ZM16.78 141.2L4.46 141.2L4.46 115.01L15.81 115.01C21.79 115.01 24.96 117.57 24.96 121.56C24.96 124.45 22.93 126.69 19.9 127.28L19.9 127.55C23.27 127.67 25.98 130.09 25.98 133.78C25.98 138.09 22.47 141.2 16.78 141.2ZM11.57 120.59L11.57 125.6L14.48 125.6C16.35 125.6 17.65 124.71 17.65 123.09C17.65 121.48 16.35 120.59 14.58 120.59L11.57 120.59ZM39.74 138.44C38.56 140.63 36.62 141.5 34.06 141.5C30.31 141.5 27.68 139.68 27.68 135.77C27.68 131.47 30.83 129.83 34.88 129.53C38.19 129.3 39.43 128.94 39.43 127.8L39.43 127.75C39.43 126.72 38.56 126.16 37.34 126.16C36 126.16 35.1 126.74 34.93 127.95L28.44 127.95C28.69 124.37 31.58 121.31 37.44 121.31C43.06 121.31 46.49 124.12 46.49 127.75L46.49 141.2L39.89 141.2L39.89 138.44L39.74 138.44ZM129.85 134.86C129.18 138.95 125.68 141.56 120.23 141.56C113.95 141.56 110.1 137.79 110.1 131.43C110.1 125.34 113.99 121.31 120.08 121.31C126.01 121.31 129.85 125.13 129.85 131.38L129.85 133.01L117.06 133.01L117.06 133.32C117.06 135.21 118.29 136.59 120.39 136.59C121.83 136.59 122.99 135.97 123.4 134.86L129.85 134.86ZM139.77 148.56L132.71 148.56L132.71 121.56L139.72 121.56L139.72 124.99L139.87 124.99C140.63 122.99 142.48 121.31 145.39 121.31C149.28 121.31 153.06 124.27 153.06 131.38C153.06 138.18 149.53 141.45 145.34 141.45C142.58 141.45 140.68 139.97 139.87 137.97L139.77 137.97L139.77 148.56ZM174.94 133.01C174.87 138.22 171.31 141.56 165.49 141.56C159.1 141.56 155.31 137.46 155.31 131.43C155.31 125.39 159.1 121.31 165.49 121.31C171.26 121.31 174.91 124.63 174.94 129.74L168.41 129.74C168.21 127.69 167.15 126.57 165.59 126.57C163.74 126.57 162.53 128.15 162.53 131.38C162.53 134.6 163.74 136.19 165.59 136.19C167.14 136.19 168.25 135.07 168.41 133.01L174.94 133.01ZM197.5 131.43C197.5 137.46 193.71 141.56 187.32 141.56C180.93 141.56 177.14 137.46 177.14 131.43C177.14 125.39 180.93 121.31 187.32 121.31C193.71 121.31 197.5 125.39 197.5 131.43ZM233.04 138.44C231.85 140.63 229.92 141.5 227.36 141.5C223.61 141.5 220.97 139.68 220.97 135.77C220.97 131.47 224.13 129.83 228.18 129.53C231.48 129.3 232.73 128.94 232.73 127.8L232.73 127.75C232.73 126.72 231.86 126.16 230.64 126.16C229.29 126.16 228.4 126.74 228.23 127.95L221.74 127.95C221.98 124.37 224.87 121.31 230.74 121.31C236.35 121.31 239.79 124.12 239.79 127.75L239.79 141.2L233.19 141.2L233.19 138.44L233.04 138.44ZM397.14 148.56L390.08 148.56L390.08 121.56L397.09 121.56L397.09 124.99L397.24 124.99C398 122.99 399.85 121.31 402.76 121.31C406.65 121.31 410.43 124.27 410.43 131.38C410.43 138.18 406.9 141.45 402.71 141.45C399.95 141.45 398.05 139.97 397.24 137.97L397.14 137.97L397.14 148.56ZM432.42 134.86C431.75 138.95 428.25 141.56 422.8 141.56C416.52 141.56 412.68 137.79 412.68 131.43C412.68 125.34 416.56 121.31 422.65 121.31C428.59 121.31 432.42 125.13 432.42 131.38L432.42 133.01L419.63 133.01L419.63 133.32C419.63 135.21 420.86 136.59 422.96 136.59C424.4 136.59 425.56 135.97 425.98 134.86L432.42 134.86ZM475.73 134.86C475.06 138.95 471.57 141.56 466.12 141.56C459.83 141.56 455.99 137.79 455.99 131.43C455.99 125.34 459.88 121.31 465.97 121.31C471.9 121.31 475.73 125.13 475.73 131.38L475.73 133.01L462.94 133.01L462.94 133.32C462.94 135.21 464.17 136.59 466.27 136.59C467.72 136.59 468.88 135.97 469.29 134.86L475.73 134.86ZM485.66 148.56L478.6 148.56L478.6 121.56L485.6 121.56L485.6 124.99L485.75 124.99C486.52 122.99 488.36 121.31 491.28 121.31C495.17 121.31 498.94 124.27 498.94 131.38C498.94 138.18 495.42 141.45 491.23 141.45C488.47 141.45 486.57 139.97 485.75 137.97L485.66 137.97L485.66 148.56ZM541.34 138.44C540.15 140.63 538.22 141.5 535.66 141.5C531.91 141.5 529.27 139.68 529.27 135.77C529.27 131.47 532.43 129.83 536.48 129.53C539.78 129.3 541.03 128.94 541.03 127.8L541.03 127.75C541.03 126.72 540.16 126.16 538.94 126.16C537.59 126.16 536.7 126.74 536.53 127.95L530.04 127.95C530.28 124.37 533.17 121.31 539.04 121.31C544.65 121.31 548.09 124.12 548.09 127.75L548.09 141.2L541.49 141.2L541.49 138.44L541.34 138.44ZM584.86 138.44C583.67 140.63 581.74 141.5 579.18 141.5C575.43 141.5 572.79 139.68 572.79 135.77C572.79 131.47 575.94 129.83 580 129.53C583.3 129.3 584.55 128.94 584.55 127.8L584.55 127.75C584.55 126.72 583.68 126.16 582.46 126.16C581.11 126.16 580.21 126.74 580.05 127.95L573.55 127.95C573.8 124.37 576.69 121.31 582.55 121.31C588.17 121.31 591.61 124.12 591.61 127.75L591.61 141.2L585.01 141.2L585.01 138.44L584.86 138.44ZM635.43 133.01C635.36 138.22 631.79 141.56 625.97 141.56C619.58 141.56 615.79 137.46 615.79 131.43C615.79 125.39 619.58 121.31 625.97 121.31C631.74 121.31 635.39 124.63 635.43 129.74L628.89 129.74C628.69 127.69 627.63 126.57 626.08 126.57C624.22 126.57 623.01 128.15 623.01 131.38C623.01 134.6 624.22 136.19 626.08 136.19C627.62 136.19 628.73 135.07 628.89 133.01L635.43 133.01ZM49.87 141.2L49.87 121.56L56.52 121.56L56.52 135.88L60.81 135.88L60.81 121.56L67.46 121.56L67.46 135.88L71.76 135.88L71.76 121.56L78.4 121.56L78.4 141.2L49.87 141.2ZM95.48 141.2L88.94 141.2L88.94 121.56L107.25 121.56L107.25 141.2L100.59 141.2L100.59 126.83L95.48 126.83L95.48 141.2ZM200.37 121.56L207.01 121.56L207.01 128.67L211.92 128.67L211.92 121.56L218.51 121.56L218.51 141.2L211.92 141.2L211.92 133.94L207.01 133.94L207.01 141.2L200.37 141.2L200.37 121.56ZM244.44 141.2L242.39 141.2L242.35 135.88L242.96 135.88C244.49 135.88 245.31 134.14 245.46 130.25L245.77 121.56L261.93 121.56L261.93 141.2L255.29 141.2L255.29 126.83L252.01 126.83L251.7 132.14C251.35 138.84 248.48 141.2 244.44 141.2ZM271.95 121.56L271.95 126.88L275.28 126.88C280.87 126.88 284.3 129.63 284.33 134.14C284.3 138.52 280.87 141.2 275.28 141.2L265.31 141.2L265.31 121.56L271.95 121.56ZM287.3 121.56L293.94 121.56L293.94 128.67L298.85 128.67L298.85 121.56L305.45 121.56L305.45 141.2L298.85 141.2L298.85 133.94L293.94 133.94L293.94 141.2L287.3 141.2L287.3 121.56ZM315.47 121.56L315.47 126.88L318.79 126.88C324.39 126.88 327.82 129.63 327.85 134.14C327.82 138.52 324.39 141.2 318.79 141.2L308.82 141.2L308.82 121.56L315.47 121.56ZM336.34 141.2L329.28 141.2L329.28 121.56L336.34 121.56L336.34 141.2ZM346.56 121.56L346.56 132.2L352.04 121.56L358.68 121.56L358.68 141.2L352.04 141.2L352.04 130.51L346.56 141.2L339.92 141.2L339.92 121.56L346.56 121.56ZM374.58 126.83L368.45 126.83L368.45 121.56L387.47 121.56L387.47 126.83L381.23 126.83L381.23 141.2L374.58 141.2L374.58 126.83ZM442.34 141.2L435.29 141.2L435.29 121.56L442.34 121.56L442.34 128.57L443.57 128.57L447.76 121.56L455.84 121.56L449.55 131.48L455.89 141.2L447.7 141.2L443.93 135.11L442.34 135.11L442.34 141.2ZM518.99 141.2L509.08 141.2L509.08 121.56L517.66 121.56C522.93 121.56 526.15 123.35 526.15 126.93C526.15 128.87 524.41 130.51 521.2 131.02C525.64 131.22 527.48 133.52 527.48 135.77C527.48 139.36 524.52 141.2 518.99 141.2ZM558.53 141.2L551.47 141.2L551.47 121.56L558.53 121.56L558.53 128.57L559.75 128.57L563.94 121.56L572.03 121.56L565.73 131.48L572.07 141.2L563.89 141.2L560.11 135.11L558.53 135.11L558.53 141.2ZM594.98 121.56L601.63 121.56L601.63 128.67L606.54 128.67L606.54 121.56L613.13 121.56L613.13 141.2L606.54 141.2L606.54 133.94L601.63 133.94L601.63 141.2L594.98 141.2L594.98 121.56ZM644.99 121.56L644.99 132.2L650.47 121.56L657.11 121.56L657.11 141.2L650.47 141.2L650.47 130.51L644.99 141.2L638.35 141.2L638.35 121.56L644.99 121.56ZM667.34 121.56L667.34 132.2L672.81 121.56L679.46 121.56L679.46 141.2L672.81 141.2L672.81 130.51L667.34 141.2L660.69 141.2L660.69 121.56L667.34 121.56ZM120.23 126.26C118.51 126.26 117.1 127.42 117.06 129.13L123.35 129.13C123.31 127.44 121.98 126.26 120.23 126.26ZM422.8 126.26C421.08 126.26 419.67 127.42 419.63 129.13L425.92 129.13C425.89 127.44 424.55 126.26 422.8 126.26ZM466.12 126.26C464.39 126.26 462.99 127.42 462.94 129.13L469.24 129.13C469.2 127.44 467.87 126.26 466.12 126.26ZM184.36 131.38C184.36 134.45 185.49 136.34 187.38 136.34C189.16 136.34 190.28 134.45 190.28 131.38C190.28 128.29 189.16 126.42 187.38 126.42C185.49 126.42 184.36 128.29 184.36 131.38ZM515.61 126.68L515.61 129.53L517.86 129.53C518.95 129.53 519.6 129 519.6 128.11C519.6 127.21 518.87 126.68 517.66 126.68L515.61 126.68ZM142.73 126.72C140.79 126.72 139.61 128.46 139.61 131.38C139.61 134.24 140.79 136.03 142.73 136.03C144.67 136.03 145.8 134.3 145.8 131.38C145.8 128.46 144.67 126.72 142.73 126.72ZM400.1 126.72C398.16 126.72 396.98 128.46 396.98 131.38C396.98 134.24 398.16 136.03 400.1 136.03C402.04 136.03 403.17 134.3 403.17 131.38C403.17 128.46 402.04 126.72 400.1 126.72ZM488.62 126.72C486.68 126.72 485.5 128.46 485.5 131.38C485.5 134.24 486.68 136.03 488.62 136.03C490.56 136.03 491.69 134.3 491.69 131.38C491.69 128.46 490.56 126.72 488.62 126.72ZM11.57 130L11.57 135.52L14.89 135.52C17.28 135.52 18.47 134.61 18.47 132.86C18.47 131.02 17.15 130 15 130L11.57 130ZM275.28 132.14L271.95 132.14L271.95 135.93L275.28 135.93C276.73 135.93 277.75 135.16 277.78 134.09C277.75 132.95 276.73 132.14 275.28 132.14ZM318.79 132.14L315.47 132.14L315.47 135.93L318.79 135.93C320.24 135.93 321.27 135.16 321.3 134.09C321.27 132.95 320.24 132.14 318.79 132.14ZM34.32 135.37C34.32 136.47 35.16 137.06 36.37 137.06C37.97 137.06 39.49 136.03 39.49 134.24L39.49 132.61C38.75 132.91 37.8 133.14 36.68 133.32C35.04 133.58 34.32 134.36 34.32 135.37ZM227.62 135.37C227.62 136.47 228.46 137.06 229.66 137.06C231.26 137.06 232.78 136.03 232.78 134.24L232.78 132.61C232.05 132.91 231.1 133.14 229.97 133.32C228.34 133.58 227.62 134.36 227.62 135.37ZM535.92 135.37C535.92 136.47 536.76 137.06 537.96 137.06C539.56 137.06 541.08 136.03 541.08 134.24L541.08 132.61C540.35 132.91 539.4 133.14 538.27 133.32C536.64 133.58 535.92 134.36 535.92 135.37ZM579.43 135.37C579.43 136.47 580.28 137.06 581.48 137.06C583.08 137.06 584.6 136.03 584.6 134.24L584.6 132.61C583.86 132.91 582.91 133.14 581.79 133.32C580.15 133.58 579.43 134.36 579.43 135.37ZM515.61 133.12L515.61 136.24L518.99 136.24C520.13 136.24 520.84 135.66 520.84 134.7C520.84 133.72 520.13 133.12 518.99 133.12L515.61 133.12Z" fill="url(#paint_linear_9_1_0)" fill-opacity="1.000000" fill-rule="evenodd"/>
</svg>
