<svg width="467.000000" height="113.999939" viewBox="0 0 467 114" fill="none" xmlns="http://www.w3.org/2000/svg" xmlns:xlink="http://www.w3.org/1999/xlink">
	<desc>
			Created with Pixso.
	</desc>
	<defs>
		<linearGradient x1="233.500000" y1="9.000000" x2="233.500000" y2="86.000000" id="paint_linear_5_38_0" gradientUnits="userSpaceOnUse">
			<stop offset="0.184597" stop-color="#065D9A"/>
			<stop offset="0.881335" stop-color="#0E7DF4"/>
		</linearGradient>
	</defs>
	<path id="Прямоугольник 5" d="M75 114L452.5 0L251.84 82.18L111.05 82.18L75 114Z" fill="#042BA5" fill-opacity="0.224138" fill-rule="evenodd"/>
	<path id="Прямоугольник 5" d="M453 96L32.5 8L59 96L121 8L453 96Z" fill="#C5CFFF" fill-opacity="0.275862" fill-rule="evenodd"/>
	<path id="Career Tracker" d="M24.9 23.81C35.68 23.81 43.81 30 45.1 40.75L35.15 40.75C34.4 35.64 30.51 32.51 25.14 32.51C17.93 32.51 13.2 38.04 13.2 47.73C13.2 57.68 18 62.93 25.06 62.93C30.31 62.93 34.23 60.06 35.15 55.09L45.1 55.14C44.04 63.7 36.84 71.64 24.9 71.64C12.45 71.64 3.23 62.9 3.23 47.73C3.23 32.5 12.6 23.81 24.9 23.81ZM243.81 32.56L229.56 32.56L229.56 24.45L267.79 24.45L267.79 32.56L253.54 32.56L253.54 71L243.81 71L243.81 32.56ZM379.88 71L370.2 71L370.2 24.45L379.88 24.45L379.88 49.34L380.4 49.34L391.59 36.09L402.7 36.09L389.74 51.2L403.35 71L392.02 71L382.49 56.93L379.88 59.9L379.88 71ZM98.81 71L89.13 71L89.13 36.09L98.52 36.09L98.52 42.18L98.88 42.18C100.16 37.85 103.36 35.59 107.27 35.59C108.25 35.59 109.46 35.73 110.32 35.93L110.32 44.51C109.41 44.23 107.57 44 106.22 44C101.96 44 98.81 46.95 98.81 51.25L98.81 71ZM199.84 71L190.15 71L190.15 36.09L199.54 36.09L199.54 42.18L199.9 42.18C201.18 37.85 204.38 35.59 208.29 35.59C209.28 35.59 210.48 35.73 211.34 35.93L211.34 44.51C210.43 44.23 208.59 44 207.24 44C202.98 44 199.84 46.95 199.84 51.25L199.84 71ZM279.97 71L270.29 71L270.29 36.09L279.68 36.09L279.68 42.18L280.04 42.18C281.32 37.85 284.52 35.59 288.43 35.59C289.41 35.59 290.61 35.73 291.47 35.93L291.47 44.51C290.57 44.23 288.72 44 287.38 44C283.11 44 279.97 46.95 279.97 51.25L279.97 71ZM453.91 71L444.22 71L444.22 36.09L453.61 36.09L453.61 42.18L453.97 42.18C455.25 37.85 458.45 35.59 462.36 35.59C463.34 35.59 464.55 35.73 465.41 35.93L465.41 44.51C464.5 44.23 462.66 44 461.31 44C457.05 44 453.91 46.95 453.91 51.25L453.91 71ZM72.15 66.15C70.44 69.4 67.12 71.65 61.94 71.65C55.29 71.65 50.37 68.15 50.37 61.25C50.37 53.45 56.57 51.14 63.48 50.5C69.54 49.9 71.93 49.6 71.93 47.35L71.93 47.23C71.93 44.35 70.04 42.7 66.74 42.7C63.27 42.7 61.19 44.4 60.54 46.73L51.58 46C52.93 39.64 58.43 35.64 66.79 35.64C74.57 35.64 81.62 39.14 81.62 47.45L81.62 71L72.43 71L72.43 66.15L72.15 66.15ZM145.38 61C144.03 67.48 138.2 71.68 129.56 71.68C118.81 71.68 112.24 64.76 112.24 53.7C112.24 42.93 118.9 35.64 129.18 35.64C138.4 35.64 145.59 41.5 145.59 53.35L145.59 56.01L121.81 56.01L121.81 56.04C121.81 61.25 124.88 64.45 129.73 64.45C132.95 64.45 135.45 63.06 136.43 60.4L145.38 61ZM183.63 61C182.28 67.48 176.45 71.68 167.81 71.68C157.06 71.68 150.49 64.76 150.49 53.7C150.49 42.93 157.15 35.64 167.43 35.64C176.65 35.64 183.84 41.5 183.84 53.35L183.84 56.01L160.06 56.01L160.06 56.04C160.06 61.25 163.13 64.45 167.98 64.45C171.2 64.45 173.7 63.06 174.68 60.4L183.63 61ZM315.62 66.15C313.92 69.4 310.59 71.65 305.42 71.65C298.76 71.65 293.84 68.15 293.84 61.25C293.84 53.45 300.05 51.14 306.95 50.5C313.01 49.9 315.41 49.6 315.41 47.35L315.41 47.23C315.41 44.35 313.51 42.7 310.22 42.7C306.75 42.7 304.67 44.4 304.01 46.73L295.06 46C296.41 39.64 301.91 35.64 310.26 35.64C318.05 35.64 325.09 39.14 325.09 47.45L325.09 71L315.91 71L315.91 66.15L315.62 66.15ZM363.98 58.2C363.51 66.23 357.68 71.68 348.39 71.68C337.64 71.68 331.2 64.29 331.2 53.68C331.2 42.98 337.75 35.64 348.34 35.64C357.45 35.64 363.56 40.93 363.98 49L354.84 49C354.31 45.51 352.04 43.18 348.5 43.18C344 43.18 341.04 46.95 341.04 53.54C341.04 60.23 343.98 64.01 348.5 64.01C351.81 64.01 354.26 61.93 354.84 58.2L363.98 58.2ZM437.7 61C436.34 67.48 430.52 71.68 421.87 71.68C411.12 71.68 404.56 64.76 404.56 53.7C404.56 42.93 411.22 35.64 421.5 35.64C430.72 35.64 437.91 41.5 437.91 53.35L437.91 56.01L414.12 56.01L414.12 56.04C414.12 61.25 417.2 64.45 422.05 64.45C425.27 64.45 427.77 63.06 428.75 60.4L437.7 61ZM129.34 42.85C125.04 42.85 122.03 46.04 121.81 50.01L136.48 50.01C136.45 45.85 133.54 42.85 129.34 42.85ZM167.59 42.85C163.29 42.85 160.28 46.04 160.06 50.01L174.73 50.01C174.7 45.85 171.79 42.85 167.59 42.85ZM421.66 42.85C417.36 42.85 414.34 46.04 414.12 50.01L428.8 50.01C428.77 45.85 425.86 42.85 421.66 42.85ZM59.62 60.93C59.62 63.59 61.74 64.98 64.73 64.98C68.98 64.98 71.99 62.18 71.99 58.51L71.99 54.81C70.83 55.59 67.38 56.09 65.27 56.39C61.87 56.85 59.62 58.2 59.62 60.93ZM303.09 60.93C303.09 63.59 305.22 64.98 308.2 64.98C312.45 64.98 315.47 62.18 315.47 58.51L315.47 54.81C314.31 55.59 310.86 56.09 308.75 56.39C305.34 56.85 303.09 58.2 303.09 60.93Z" fill="url(#paint_linear_5_38_0)" fill-opacity="1.000000" fill-rule="evenodd"/>
</svg>
