<svg width="596.775757" height="106.662048" viewBox="0 0 596.776 106.662" fill="none" xmlns="http://www.w3.org/2000/svg" xmlns:xlink="http://www.w3.org/1999/xlink">
	<desc>
			Created with Pixso.
	</desc>
	<defs>
		<linearGradient x1="363.275757" y1="14.200684" x2="363.275757" y2="91.200684" id="paint_linear_5_38_0" gradientUnits="userSpaceOnUse">
			<stop offset="0.184597" stop-color="#1B5D8B"/>
			<stop offset="0.881335" stop-color="#7CB4F0"/>
		</linearGradient>
	</defs>
	<path id="Прямоугольник 5" d="M134.75 106.66L6.77 28.7L6.77 93.03L49.27 4.2L134.75 106.66Z" fill="#4BB1F9" fill-opacity="0.327586" fill-rule="evenodd"/>
	<path id="Career Tracker" d="M154.68 29.01C165.46 29.01 173.58 35.2 174.88 45.95L164.93 45.95C164.18 40.84 160.29 37.71 154.91 37.71C147.71 37.71 142.97 43.24 142.97 52.93C142.97 62.88 147.77 68.13 154.83 68.13C160.08 68.13 164.01 65.26 164.93 60.29L174.88 60.34C173.82 68.9 166.62 76.84 154.68 76.84C142.22 76.84 133 68.1 133 52.93C133 37.7 142.38 29.01 154.68 29.01ZM373.58 37.76L359.33 37.76L359.33 29.65L397.57 29.65L397.57 37.76L383.32 37.76L383.32 76.2L373.58 76.2L373.58 37.76ZM509.66 76.2L499.97 76.2L499.97 29.65L509.66 29.65L509.66 54.54L510.17 54.54L521.36 41.29L532.47 41.29L519.52 56.4L533.13 76.2L521.8 76.2L512.27 62.13L509.66 65.1L509.66 76.2ZM228.59 76.2L218.9 76.2L218.9 41.29L228.29 41.29L228.29 47.38L228.65 47.38C229.93 43.06 233.14 40.79 237.04 40.79C238.03 40.79 239.23 40.93 240.09 41.13L240.09 49.71C239.18 49.43 237.34 49.2 236 49.2C231.73 49.2 228.59 52.15 228.59 56.45L228.59 76.2ZM329.61 76.2L319.93 76.2L319.93 41.29L329.32 41.29L329.32 47.38L329.68 47.38C330.96 43.06 334.16 40.79 338.07 40.79C339.05 40.79 340.25 40.93 341.11 41.13L341.11 49.71C340.21 49.43 338.36 49.2 337.02 49.2C332.75 49.2 329.61 52.15 329.61 56.45L329.61 76.2ZM409.75 76.2L400.06 76.2L400.06 41.29L409.45 41.29L409.45 47.38L409.81 47.38C411.09 43.06 414.3 40.79 418.2 40.79C419.19 40.79 420.39 40.93 421.25 41.13L421.25 49.71C420.34 49.43 418.5 49.2 417.16 49.2C412.89 49.2 409.75 52.15 409.75 56.45L409.75 76.2ZM583.68 76.2L573.99 76.2L573.99 41.29L583.38 41.29L583.38 47.38L583.74 47.38C585.03 43.06 588.23 40.79 592.13 40.79C593.12 40.79 594.32 40.93 595.18 41.13L595.18 49.71C594.28 49.43 592.43 49.2 591.09 49.2C586.82 49.2 583.68 52.15 583.68 56.45L583.68 76.2ZM201.92 71.35C200.22 74.6 196.89 76.85 191.72 76.85C185.06 76.85 180.14 73.35 180.14 66.45C180.14 58.65 186.35 56.34 193.25 55.7C199.31 55.1 201.7 54.81 201.7 52.56L201.7 52.43C201.7 49.56 199.81 47.9 196.52 47.9C193.05 47.9 190.97 49.6 190.31 51.93L181.36 51.2C182.7 44.84 188.2 40.84 196.56 40.84C204.35 40.84 211.39 44.34 211.39 52.65L211.39 76.2L202.2 76.2L202.2 71.35L201.92 71.35ZM275.16 66.2C273.8 72.68 267.97 76.88 259.33 76.88C248.58 76.88 242.02 69.96 242.02 58.9C242.02 48.13 248.68 40.84 258.96 40.84C268.18 40.84 275.36 46.7 275.36 58.56L275.36 61.21L251.58 61.21L251.58 61.24C251.58 66.45 254.66 69.65 259.5 69.65C262.72 69.65 265.22 68.26 266.21 65.6L275.16 66.2ZM313.41 66.2C312.05 72.68 306.22 76.88 297.58 76.88C286.83 76.88 280.27 69.96 280.27 58.9C280.27 48.13 286.93 40.84 297.21 40.84C306.43 40.84 313.61 46.7 313.61 58.56L313.61 61.21L289.83 61.21L289.83 61.24C289.83 66.45 292.91 69.65 297.75 69.65C300.97 69.65 303.47 68.26 304.46 65.6L313.41 66.2ZM445.4 71.35C443.7 74.6 440.37 76.85 435.2 76.85C428.54 76.85 423.62 73.35 423.62 66.45C423.62 58.65 429.82 56.34 436.73 55.7C442.79 55.1 445.18 54.81 445.18 52.56L445.18 52.43C445.18 49.56 443.29 47.9 439.99 47.9C436.53 47.9 434.45 49.6 433.79 51.93L424.84 51.2C426.18 44.84 431.68 40.84 440.04 40.84C447.82 40.84 454.87 44.34 454.87 52.65L454.87 76.2L445.68 76.2L445.68 71.35L445.4 71.35ZM493.76 63.4C493.29 71.43 487.46 76.88 478.16 76.88C467.41 76.88 460.97 69.49 460.97 58.88C460.97 48.18 467.52 40.84 478.12 40.84C487.22 40.84 493.33 46.13 493.76 54.2L484.62 54.2C484.08 50.71 481.82 48.38 478.27 48.38C473.77 48.38 470.82 52.15 470.82 58.74C470.82 65.43 473.76 69.21 478.27 69.21C481.58 69.21 484.04 67.13 484.62 63.4L493.76 63.4ZM567.48 66.2C566.12 72.68 560.29 76.88 551.65 76.88C540.9 76.88 534.34 69.96 534.34 58.9C534.34 48.13 540.99 40.84 551.28 40.84C560.49 40.84 567.68 46.7 567.68 58.56L567.68 61.21L543.9 61.21L543.9 61.24C543.9 66.45 546.98 69.65 551.82 69.65C555.04 69.65 557.54 68.26 558.53 65.6L567.48 66.2ZM259.11 48.06C254.82 48.06 251.8 51.24 251.58 55.21L266.25 55.21C266.22 51.06 263.32 48.06 259.11 48.06ZM297.36 48.06C293.07 48.06 290.05 51.24 289.83 55.21L304.5 55.21C304.47 51.06 301.57 48.06 297.36 48.06ZM551.43 48.06C547.13 48.06 544.12 51.24 543.9 55.21L558.57 55.21C558.54 51.06 555.63 48.06 551.43 48.06ZM189.39 66.13C189.39 68.79 191.52 70.18 194.5 70.18C198.75 70.18 201.77 67.38 201.77 63.71L201.77 60.01C200.61 60.79 197.16 61.29 195.05 61.59C191.64 62.06 189.39 63.4 189.39 66.13ZM432.87 66.13C432.87 68.79 434.99 70.18 437.98 70.18C442.23 70.18 445.24 67.38 445.24 63.71L445.24 60.01C444.09 60.79 440.63 61.29 438.53 61.59C435.12 62.06 432.87 63.4 432.87 66.13Z" fill="url(#paint_linear_5_38_0)" fill-opacity="1.000000" fill-rule="evenodd"/>
	<path id="Прямоугольник 5" d="M78.77 56.2L14.77 56.2L52.77 27.7L14.77 88.2L78.77 56.2Z" fill="#0070B4" fill-opacity="1.000000" fill-rule="evenodd"/>
</svg>
